<svg width="163" height="31" viewBox="0 0 163 31" fill="none" xmlns="http://www.w3.org/2000/svg">
<path d="M2.24907 0.0372925L0 3.38629L9.72717 18.9032V29.8398H10.3323L12.581 26.4908H11.975V15.5534L2.24907 0.0372925Z" fill="#5E6167"/>
<path d="M58.0818 20.6574L55.8335 24.0064C55.3188 24.8016 54.7256 25.5385 54.0685 26.2067C51.6084 28.7041 48.2403 30.2179 44.4933 30.2179C40.784 30.2179 37.6009 28.7041 35.1796 26.2067C32.7568 23.7473 31.2061 20.3408 31.2061 16.5942C31.2061 13.8642 31.8072 11.3147 33.1916 9.18075L33.192 9.18155L35.4411 5.83255L35.4399 5.83136C34.0559 7.96535 33.2321 10.5148 33.2321 13.2448C33.2321 16.9914 34.7832 20.3975 37.2057 22.8573C39.6274 25.3555 43.0331 26.8689 46.742 26.8689C50.4886 26.8689 53.8566 25.3555 56.3172 22.8573C56.9743 22.1895 57.5675 21.4526 58.083 20.6574" fill="#5E6167"/>
<path d="M91.6098 26.2098C89.9424 28.7981 86.501 30.1421 83.3551 30.1421C78.9653 30.1421 74.0839 27.5689 74.0839 22.6489V3.38623L76.3321 0.0372314V19.2999C76.3321 24.2199 81.2144 26.7935 85.6034 26.7935C88.681 26.7935 92.0431 25.5063 93.7481 23.0263L91.6098 26.2098Z" fill="#5E6167"/>
<path d="M111.713 0L109.464 3.3486V29.8394H110.032L112.281 26.4912H111.713V0Z" fill="#5E6167"/>
<path d="M115.724 14.9106L113.475 18.2596V18.8274L125.661 29.8394H126.532L128.781 26.4912H127.91L115.724 15.4784V14.9106Z" fill="#5E6167"/>
<path d="M159.483 26.0095C157.89 28.6363 154.431 30.104 151.089 30.104C147.23 30.104 142.536 27.9093 142.082 23.6326L142.045 23.3679L144.293 20.0193L144.332 20.284C144.786 24.5603 149.478 26.7558 153.338 26.7558C156.515 26.7558 159.798 25.4285 161.482 23.0422L159.483 26.0095Z" fill="#5E6167"/>
<path d="M91.834 24.198C93.2879 23.0596 94.2696 21.4292 94.2703 19.3003V0.0372314L92.0213 3.38623V22.6493C92.0213 23.1985 91.9566 23.7143 91.834 24.198Z" fill="#5E6167"/>
<path d="M56.1874 22.1029C56.964 20.436 57.3985 18.5726 57.3985 16.5945C57.3985 12.9987 55.9605 9.78264 53.6515 7.43596C51.3048 5.05119 48.0514 3.5755 44.4933 3.5755C40.936 3.5755 37.7191 5.05119 35.3729 7.43596C35.2641 7.54667 35.1574 7.65897 35.0522 7.77365C35.6967 6.39595 36.5732 5.15199 37.6215 4.08698C39.9682 1.7026 43.1851 0.226501 46.742 0.226501C50.2997 0.226501 53.5539 1.7026 55.9006 4.08698C58.2091 6.43286 59.6471 9.65012 59.6471 13.2447C59.6471 16.6886 58.3278 19.786 56.1874 22.1029Z" fill="#5E6167"/>
<path d="M125.662 13.3681C130.3 9.67115 128.704 0.605438 120.87 0.605042H112.281V3.95404H118.622C124.594 3.95404 126.943 9.22633 125.663 13.3693" fill="#5E6167"/>
<path d="M125.309 15.4672C124.255 17.0921 122.541 18.3333 120.168 18.7087L116.595 15.4775H120.87C123.882 15.4775 126.039 14.2268 127.339 12.4365" fill="#5E6167"/>
<path d="M145.257 5.43051C145.435 4.66587 145.811 3.89489 146.336 3.24413C147.925 1.16291 150.726 0.302648 153.225 0.264555C155.608 0.226462 158.22 0.945873 159.846 2.68624C160.604 3.51873 161.058 4.46509 161.284 5.56225L161.323 5.86541L161.89 5.75192L159.642 9.10091L159.074 9.21479L159.036 8.91203C158.81 7.81408 158.355 6.86811 157.598 6.03563C155.97 4.29486 153.359 3.57547 150.976 3.61317C149.031 3.64293 146.833 4.20281 145.257 5.43051Z" fill="#5E6167"/>
<path d="M159.623 24.1596C161.405 22.7533 162.455 20.6467 161.891 17.9377C160.188 10.066 145.239 17.2564 144.558 7.37926C144.432 6.05395 144.699 4.75561 145.362 3.61401L143.314 6.64121C142.506 7.85661 142.17 9.27676 142.309 10.7279C142.99 20.6058 157.939 13.415 159.642 21.2863C159.861 22.3367 159.838 23.2961 159.623 24.1596Z" fill="#5E6167"/>
</svg>
